<svg width="240" height="64" viewBox="0 0 240 64" fill="none" xmlns="http://www.w3.org/2000/svg">
  <rect width="240" height="64" rx="8" fill="#0F172A"/>
  <circle cx="32" cy="32" r="18" fill="#0EA5E9"/>
  <path d="M32 20C25.373 20 20 25.373 20 32C20 38.627 25.373 44 32 44C38.627 44 44 38.627 44 32C44 25.373 38.627 20 32 20ZM32 40C27.582 40 24 36.418 24 32C24 27.582 27.582 24 32 24C36.418 24 40 27.582 40 32C40 36.418 36.418 40 32 40Z" fill="white"/>
  <text x="60" y="30" font-size="14" font-family="ui-sans-serif, system-ui, -apple-system, Segoe UI, Roboto" fill="white">Olson &amp; Company</text>
  <text x="60" y="48" font-size="11" font-family="ui-sans-serif, system-ui, -apple-system, Segoe UI, Roboto" fill="#CBD5E1">Chartered Professional Accountants</text>
</svg>
