<svg xmlns="http://www.w3.org/2000/svg" viewBox="0 0 256 256" role="img" aria-label="Olson and Company accounting favicon">
  <rect x="8" y="8" width="240" height="240" rx="56" fill="#0f172a" />
  <rect x="52" y="32" width="118" height="172" rx="16" fill="#f8fafc" />
  <rect x="68" y="62" width="84" height="12" rx="6" fill="#0f172a" />
  <rect x="68" y="88" width="84" height="8" rx="4" fill="#94a3b8" />
  <rect x="68" y="108" width="84" height="8" rx="4" fill="#94a3b8" />
  <rect x="68" y="128" width="84" height="8" rx="4" fill="#94a3b8" />
  <rect x="68" y="148" width="50" height="8" rx="4" fill="#94a3b8" />
  <circle cx="182" cy="176" r="42" fill="#0369a1" />
  <path
    d="M182 148v56M194 158c-3-4-9-6-15-6-9 0-16 5-16 12 0 6 4 10 16 13 11 3 16 6 16 13 0 8-7 13-16 13-7 0-14-2-19-7"
    fill="none"
    stroke="#f8fafc"
    stroke-linecap="round"
    stroke-linejoin="round"
    stroke-width="8"
  />
</svg>
